<?xml version="1.0" standalone="no"?><!DOCTYPE svg PUBLIC "-//W3C//DTD SVG 1.1//EN" "http://www.w3.org/Graphics/SVG/1.1/DTD/svg11.dtd"><svg t="1640671966928" class="icon" viewBox="0 0 1024 1024" version="1.1" xmlns="http://www.w3.org/2000/svg" p-id="2144" xmlns:xlink="http://www.w3.org/1999/xlink" width="200" height="200"><defs><style type="text/css"></style></defs><path d="M512 576a149.333333 149.333333 0 1 1 0-298.666667 149.333333 149.333333 0 0 1 0 298.666667z m0-42.666667a106.666667 106.666667 0 1 0 0-213.333333 106.666667 106.666667 0 0 0 0 213.333333z" fill="#8a8a8a" p-id="2145"></path><path d="M526.293333 986.538667l-14.293333 12.8-14.293333-12.8C251.733333 765.013333 128 588.586667 128 453.376 128 246.698667 303.914667 64 512 64s384 182.698667 384 389.376c0 135.210667-123.733333 311.637333-369.706667 533.162667zM853.333333 453.376c0-183.466667-157.184-346.709333-341.333333-346.709333s-341.333333 163.242667-341.333333 346.709333c0 116.778667 113.322667 280.746667 341.333333 488.533333 228.010667-207.786667 341.333333-371.754667 341.333333-488.533333z" fill="#8a8a8a" p-id="2146"></path></svg>