<svg xmlns="http://www.w3.org/2000/svg" xmlns:xlink="http://www.w3.org/1999/xlink" viewBox="0 0 223.14 191.56"><defs><style>.cls-1,.cls-2,.cls-3,.cls-4,.cls-5{fill:none;stroke:#dfe8ef;stroke-linecap:round;stroke-linejoin:round;stroke-width:2px;}.cls-2{stroke-dasharray:3.03 4.04;}.cls-3{stroke-dasharray:3.22 4.29;}.cls-4{stroke-dasharray:2.87 3.82;}.cls-5{stroke-dasharray:3 4;}.cls-6{fill:url(#未命名的渐变_617);}.cls-7{fill:url(#未命名的渐变_815);}.cls-8{fill:url(#未命名的渐变_815-2);}.cls-9{fill:url(#未命名的渐变_582);}.cls-10{fill:url(#未命名的渐变_594);}.cls-11{fill:url(#未命名的渐变_582-2);}.cls-12{fill:url(#未命名的渐变_615);}.cls-13{fill:url(#未命名的渐变_802);}.cls-14{fill:url(#未命名的渐变_512);}.cls-15{fill:url(#未命名的渐变_512-2);}.cls-16{fill:url(#未命名的渐变_877);}.cls-17{fill:url(#未命名的渐变_868);}.cls-18{fill:url(#未命名的渐变_707);}.cls-19{fill:url(#未命名的渐变_707-2);}.cls-20{fill:url(#未命名的渐变_892);}.cls-21{fill:url(#未命名的渐变_830);}.cls-22{fill:url(#未命名的渐变_759);}.cls-23{fill:url(#未命名的渐变_893);}.cls-24{fill:url(#未命名的渐变_893-2);}.cls-25{fill:url(#未命名的渐变_893-3);}.cls-26{fill:url(#未命名的渐变_637);}.cls-27{fill:url(#未命名的渐变_637-2);}.cls-28{fill:url(#未命名的渐变_637-3);}.cls-29{fill:url(#未命名的渐变_637-4);}.cls-30{fill:url(#未命名的渐变_104);}.cls-31{fill:url(#未命名的渐变_104-2);}.cls-32{fill:url(#未命名的渐变_104-3);}.cls-33{fill:url(#未命名的渐变_104-4);}.cls-34{fill:url(#未命名的渐变_104-5);}.cls-35{fill:url(#未命名的渐变_104-6);}.cls-36{fill:url(#未命名的渐变_104-7);}.cls-37{fill:url(#未命名的渐变_104-8);}.cls-38{fill:url(#未命名的渐变_104-9);}.cls-39{fill:url(#未命名的渐变_104-10);}.cls-40{fill:url(#未命名的渐变_104-11);}.cls-41{fill:url(#未命名的渐变_104-12);}.cls-42{fill:url(#未命名的渐变_104-13);}.cls-43{fill:url(#未命名的渐变_104-14);}.cls-44{fill:url(#未命名的渐变_104-15);}.cls-45{fill:url(#未命名的渐变_104-16);}.cls-46{fill:url(#未命名的渐变_104-17);}.cls-47{fill:url(#未命名的渐变_104-18);}.cls-48{fill:url(#未命名的渐变_104-19);}.cls-49{fill:url(#未命名的渐变_104-21);}.cls-50{fill:url(#未命名的渐变_104-23);}.cls-51{fill:url(#未命名的渐变_104-25);}.cls-52{fill:url(#未命名的渐变_104-26);}.cls-53{fill:url(#未命名的渐变_104-29);}.cls-54{fill:url(#未命名的渐变_104-30);}.cls-55{fill:url(#未命名的渐变_104-31);}.cls-56{fill:url(#未命名的渐变_104-32);}.cls-57{fill:url(#未命名的渐变_104-33);}.cls-58{fill:url(#未命名的渐变_104-34);}.cls-59{fill:url(#未命名的渐变_104-36);}.cls-60{fill:url(#未命名的渐变_104-37);}.cls-61{fill:url(#未命名的渐变_104-39);}.cls-62{fill:url(#未命名的渐变_104-42);}.cls-63{fill:url(#未命名的渐变_104-43);}.cls-64{fill:url(#未命名的渐变_104-45);}.cls-65{fill:url(#未命名的渐变_104-46);}.cls-66{fill:url(#未命名的渐变_104-47);}.cls-67{fill:url(#未命名的渐变_104-48);}.cls-68{fill:url(#未命名的渐变_104-49);}.cls-69{fill:url(#未命名的渐变_104-51);}.cls-70{fill:url(#未命名的渐变_104-52);}.cls-71{fill:url(#未命名的渐变_104-53);}.cls-72{fill:url(#未命名的渐变_104-54);}.cls-73{fill:url(#未命名的渐变_104-55);}.cls-74{fill:url(#未命名的渐变_104-57);}.cls-75{fill:url(#未命名的渐变_104-58);}.cls-76{fill:url(#未命名的渐变_104-59);}.cls-77{fill:url(#未命名的渐变_104-62);}.cls-78{fill:url(#未命名的渐变_104-65);}.cls-79{fill:url(#未命名的渐变_104-66);}.cls-80{fill:url(#未命名的渐变_104-67);}.cls-81{fill:url(#未命名的渐变_104-68);}.cls-82{fill:url(#未命名的渐变_104-69);}.cls-83{fill:url(#未命名的渐变_104-71);}.cls-84{fill:url(#未命名的渐变_104-73);}.cls-85{fill:url(#未命名的渐变_104-74);}.cls-86{fill:url(#未命名的渐变_104-75);}</style><linearGradient id="未命名的渐变_617" x1="68.71" x2="68.71" y2="39.11" gradientTransform="matrix(1, 0, 0, -1, 1.74, 39.11)" gradientUnits="userSpaceOnUse"><stop offset="0" stop-color="#95f0b6"/><stop offset="1" stop-color="#71d9ff"/></linearGradient><linearGradient id="未命名的渐变_815" x1="57.32" y1="7.96" x2="57.32" y2="33.5" gradientTransform="matrix(-1, 0, 0, 1, 139.15, 0)" gradientUnits="userSpaceOnUse"><stop offset="0" stop-color="#d9ffe2"/><stop offset="1" stop-color="#bafff6"/></linearGradient><linearGradient id="未命名的渐变_815-2" x1="69.16" y1="7.96" x2="69.16" y2="33.5" xlink:href="#未命名的渐变_815"/><linearGradient id="未命名的渐变_582" x1="-11.51" y1="38.94" x2="-11.51" y2="-2.71" gradientTransform="matrix(-1, 0, 0, 1, 139.15, 0)" gradientUnits="userSpaceOnUse"><stop offset="0" stop-color="#77c94a"/><stop offset="1" stop-color="#f2f556"/></linearGradient><linearGradient id="未命名的渐变_594" x1="150.15" y1="35.69" x2="150.15" y2="3.19" gradientUnits="userSpaceOnUse"><stop offset="0" stop-color="#98e86d"/><stop offset="1" stop-color="#e4ff75"/></linearGradient><linearGradient id="未命名的渐变_582-2" x1="150.15" y1="38.94" x2="150.15" y2="-2.71" gradientTransform="matrix(1, 0, 0, 1, 0, 0)" xlink:href="#未命名的渐变_582"/><linearGradient id="未命名的渐变_615" x1="151.71" y1="26.1" x2="151.71" y2="12.85" gradientUnits="userSpaceOnUse"><stop offset="0" stop-color="#bcff96"/><stop offset="1" stop-color="#eeffa6"/></linearGradient><linearGradient id="未命名的渐变_802" x1="19.56" y1="105.83" x2="19.56" y2="66.72" gradientUnits="userSpaceOnUse"><stop offset="0" stop-color="#ae82ff"/><stop offset="1" stop-color="#aad4fa"/></linearGradient><linearGradient id="未命名的渐变_512" x1="19.62" y1="101.67" x2="19.62" y2="70.45" gradientUnits="userSpaceOnUse"><stop offset="0" stop-color="#cfe8ff"/><stop offset="1" stop-color="#dcfaf9"/></linearGradient><linearGradient id="未命名的渐变_512-2" x1="19.62" y1="93.86" x2="19.62" y2="78.25" xlink:href="#未命名的渐变_512"/><linearGradient id="未命名的渐变_877" x1="-64.43" y1="106.45" x2="-64.43" y2="66.91" gradientTransform="matrix(-1, 0, 0, 1, 139.15, 0)" gradientUnits="userSpaceOnUse"><stop offset="0" stop-color="#ff9959"/><stop offset="1" stop-color="#ffef4d"/></linearGradient><linearGradient id="未命名的渐变_868" x1="203.84" y1="98.75" x2="203.84" y2="73.81" gradientUnits="userSpaceOnUse"><stop offset="0" stop-color="#ffda99"/><stop offset="1" stop-color="#fcffc9"/></linearGradient><linearGradient id="未命名的渐变_707" x1="196.18" y1="102.28" x2="196.18" y2="69.3" gradientUnits="userSpaceOnUse"><stop offset="0" stop-color="#ff9352"/><stop offset="1" stop-color="#ffef4d"/></linearGradient><linearGradient id="未命名的渐变_707-2" x1="211.93" y1="102.28" x2="211.93" y2="69.3" xlink:href="#未命名的渐变_707"/><linearGradient id="未命名的渐变_892" x1="72.27" y1="172.56" x2="72.27" y2="133.44" gradientUnits="userSpaceOnUse"><stop offset="0" stop-color="#a082ff"/><stop offset="1" stop-color="#ffb8f1"/></linearGradient><linearGradient id="未命名的渐变_830" x1="69.3" y1="168.55" x2="69.3" y2="134.67" gradientUnits="userSpaceOnUse"><stop offset="0" stop-color="#edc8fa"/><stop offset="1" stop-color="#ffe6e6"/></linearGradient><linearGradient id="未命名的渐变_759" x1="148.83" y1="172.56" x2="148.83" y2="133.44" gradientUnits="userSpaceOnUse"><stop offset="0" stop-color="#e880ff"/><stop offset="1" stop-color="#ffc799"/></linearGradient><linearGradient id="未命名的渐变_893" x1="148.83" y1="155.29" x2="148.83" y2="150.71" gradientUnits="userSpaceOnUse"><stop offset="0" stop-color="#f5c4ff"/><stop offset="1" stop-color="#ffdef6"/></linearGradient><linearGradient id="未命名的渐变_893-2" x1="141.96" y1="155.29" x2="141.96" y2="150.71" xlink:href="#未命名的渐变_893"/><linearGradient id="未命名的渐变_893-3" x1="155.71" y1="155.29" x2="155.71" y2="150.71" xlink:href="#未命名的渐变_893"/><linearGradient id="未命名的渐变_637" x1="-11.34" y1="40.37" x2="5.2" y2="40.37" gradientTransform="matrix(1, 0, 0, -1, 44.36, 80.74)" gradientUnits="userSpaceOnUse"><stop offset="0" stop-color="#eabaff"/><stop offset="1" stop-color="#ffc5c4"/></linearGradient><linearGradient id="未命名的渐变_637-2" x1="-11.34" y1="49.19" x2="25.64" y2="49.19" gradientTransform="matrix(1, 0, 0, -1, 24, 98.38)" xlink:href="#未命名的渐变_637"/><linearGradient id="未命名的渐变_637-3" x1="152.66" y1="111.37" x2="164.77" y2="111.37" gradientTransform="translate(10)" xlink:href="#未命名的渐变_637"/><linearGradient id="未命名的渐变_637-4" x1="152.66" y1="120.19" x2="179.73" y2="120.19" gradientTransform="translate(10)" xlink:href="#未命名的渐变_637"/><linearGradient id="未命名的渐变_104" x1="126.13" y1="121.4" x2="126.13" y2="46.2" gradientUnits="userSpaceOnUse"><stop offset="0" stop-color="#6b70ff"/><stop offset="1" stop-color="#4be7ff"/></linearGradient><linearGradient id="未命名的渐变_104-2" x1="104.85" y1="121.4" x2="104.85" y2="46.2" xlink:href="#未命名的渐变_104"/><linearGradient id="未命名的渐变_104-3" x1="116.21" y1="121.4" x2="116.21" y2="46.2" xlink:href="#未命名的渐变_104"/><linearGradient id="未命名的渐变_104-4" x1="99.89" y1="121.4" x2="99.89" y2="46.2" xlink:href="#未命名的渐变_104"/><linearGradient id="未命名的渐变_104-5" x1="106.59" y1="121.4" x2="106.59" y2="46.2" xlink:href="#未命名的渐变_104"/><linearGradient id="未命名的渐变_104-6" x1="83.28" y1="121.4" x2="83.28" y2="46.2" xlink:href="#未命名的渐变_104"/><linearGradient id="未命名的渐变_104-7" x1="96.69" y1="121.4" x2="96.69" y2="46.2" xlink:href="#未命名的渐变_104"/><linearGradient id="未命名的渐变_104-8" x1="122.92" y1="121.4" x2="122.92" y2="46.2" xlink:href="#未命名的渐变_104"/><linearGradient id="未命名的渐变_104-9" x1="88.34" y1="121.4" x2="88.34" y2="46.2" xlink:href="#未命名的渐变_104"/><linearGradient id="未命名的渐变_104-10" x1="134.46" y1="121.4" x2="134.46" y2="46.2" xlink:href="#未命名的渐变_104"/><linearGradient id="未命名的渐变_104-11" x1="88.39" y1="121.4" x2="88.39" y2="46.2" xlink:href="#未命名的渐变_104"/><linearGradient id="未命名的渐变_104-12" x1="126.22" y1="121.4" x2="126.22" y2="46.2" xlink:href="#未命名的渐变_104"/><linearGradient id="未命名的渐变_104-13" x1="106.6" y1="121.4" x2="106.6" y2="46.2" xlink:href="#未命名的渐变_104"/><linearGradient id="未命名的渐变_104-14" x1="122.92" y1="121.4" x2="122.92" y2="46.2" xlink:href="#未命名的渐变_104"/><linearGradient id="未命名的渐变_104-15" x1="126.12" y1="121.4" x2="126.12" y2="46.2" xlink:href="#未命名的渐变_104"/><linearGradient id="未命名的渐变_104-16" x1="139.53" y1="121.4" x2="139.53" y2="46.2" xlink:href="#未命名的渐变_104"/><linearGradient id="未命名的渐变_104-17" x1="132.83" y1="121.4" x2="132.83" y2="46.2" xlink:href="#未命名的渐变_104"/><linearGradient id="未命名的渐变_104-18" x1="122.92" y1="121.4" x2="122.92" y2="46.2" xlink:href="#未命名的渐变_104"/><linearGradient id="未命名的渐变_104-19" x1="111.4" y1="121.4" x2="111.4" y2="46.2" xlink:href="#未命名的渐变_104"/><linearGradient id="未命名的渐变_104-21" x1="108.04" y1="121.4" x2="108.04" y2="46.2" xlink:href="#未命名的渐变_104"/><linearGradient id="未命名的渐变_104-23" x1="122.97" y1="121.4" x2="122.97" y2="46.2" xlink:href="#未命名的渐变_104"/><linearGradient id="未命名的渐变_104-25" x1="129.62" y1="121.4" x2="129.62" y2="46.2" xlink:href="#未命名的渐变_104"/><linearGradient id="未命名的渐变_104-26" x1="119.71" y1="121.4" x2="119.71" y2="46.2" xlink:href="#未命名的渐变_104"/><linearGradient id="未命名的渐变_104-29" x1="129.44" y1="121.4" x2="129.44" y2="46.2" xlink:href="#未命名的渐变_104"/><linearGradient id="未命名的渐变_104-30" x1="119.72" y1="121.4" x2="119.72" y2="46.2" xlink:href="#未命名的渐变_104"/><linearGradient id="未命名的渐变_104-31" x1="124.63" y1="121.4" x2="124.63" y2="46.2" xlink:href="#未命名的渐变_104"/><linearGradient id="未命名的渐变_104-32" x1="136.13" y1="121.4" x2="136.13" y2="46.2" xlink:href="#未命名的渐变_104"/><linearGradient id="未命名的渐变_104-33" x1="141.04" y1="121.4" x2="141.04" y2="46.2" xlink:href="#未命名的渐变_104"/><linearGradient id="未命名的渐变_104-34" x1="78.42" y1="121.4" x2="78.42" y2="46.2" xlink:href="#未命名的渐变_104"/><linearGradient id="未命名的渐变_104-36" x1="136.15" y1="121.4" x2="136.15" y2="46.2" xlink:href="#未命名的渐变_104"/><linearGradient id="未命名的渐变_104-37" x1="132.83" y1="121.4" x2="132.83" y2="46.2" xlink:href="#未命名的渐变_104"/><linearGradient id="未命名的渐变_104-39" x1="129.48" y1="121.4" x2="129.48" y2="46.2" xlink:href="#未命名的渐变_104"/><linearGradient id="未命名的渐变_104-42" x1="126.12" y1="121.4" x2="126.12" y2="46.2" xlink:href="#未命名的渐变_104"/><linearGradient id="未命名的渐变_104-43" x1="127.83" y1="121.4" x2="127.83" y2="46.2" xlink:href="#未命名的渐变_104"/><linearGradient id="未命名的渐变_104-45" x1="104.89" y1="121.4" x2="104.89" y2="46.2" xlink:href="#未命名的渐变_104"/><linearGradient id="未命名的渐变_104-46" x1="119.72" y1="121.4" x2="119.72" y2="46.2" xlink:href="#未命名的渐变_104"/><linearGradient id="未命名的渐变_104-47" x1="119.66" y1="121.4" x2="119.66" y2="46.2" xlink:href="#未命名的渐变_104"/><linearGradient id="未命名的渐变_104-48" x1="118" y1="121.4" x2="118" y2="46.2" xlink:href="#未命名的渐变_104"/><linearGradient id="未命名的渐变_104-49" x1="117.93" y1="121.4" x2="117.93" y2="46.2" xlink:href="#未命名的渐变_104"/><linearGradient id="未命名的渐变_104-51" x1="122.92" y1="121.4" x2="122.92" y2="46.2" xlink:href="#未命名的渐变_104"/><linearGradient id="未命名的渐变_104-52" x1="121.29" y1="121.4" x2="121.29" y2="46.2" xlink:href="#未命名的渐变_104"/><linearGradient id="未命名的渐变_104-53" x1="119.66" y1="121.4" x2="119.66" y2="46.2" xlink:href="#未命名的渐变_104"/><linearGradient id="未命名的渐变_104-54" x1="142.8" y1="121.4" x2="142.8" y2="46.2" xlink:href="#未命名的渐变_104"/><linearGradient id="未命名的渐变_104-55" x1="144.33" y1="121.4" x2="144.33" y2="46.2" xlink:href="#未命名的渐变_104"/><linearGradient id="未命名的渐变_104-57" x1="118.01" y1="121.4" x2="118.01" y2="46.2" xlink:href="#未命名的渐变_104"/><linearGradient id="未命名的渐变_104-58" x1="119.71" y1="121.4" x2="119.71" y2="46.2" xlink:href="#未命名的渐变_104"/><linearGradient id="未命名的渐变_104-59" x1="98.29" y1="121.4" x2="98.29" y2="46.2" xlink:href="#未命名的渐变_104"/><linearGradient id="未命名的渐变_104-62" x1="121.32" y1="121.4" x2="121.32" y2="46.2" xlink:href="#未命名的渐变_104"/><linearGradient id="未命名的渐变_104-65" x1="139.33" y1="121.4" x2="139.33" y2="46.2" xlink:href="#未命名的渐变_104"/><linearGradient id="未命名的渐变_104-66" x1="136.12" y1="121.4" x2="136.12" y2="46.2" xlink:href="#未命名的渐变_104"/><linearGradient id="未命名的渐变_104-67" x1="137.73" y1="121.4" x2="137.73" y2="46.2" xlink:href="#未命名的渐变_104"/><linearGradient id="未命名的渐变_104-68" x1="141.16" y1="121.4" x2="141.16" y2="46.2" xlink:href="#未命名的渐变_104"/><linearGradient id="未命名的渐变_104-69" x1="142.8" y1="121.4" x2="142.8" y2="46.2" xlink:href="#未命名的渐变_104"/><linearGradient id="未命名的渐变_104-71" x1="144.33" y1="121.4" x2="144.33" y2="46.2" xlink:href="#未命名的渐变_104"/><linearGradient id="未命名的渐变_104-73" x1="144.36" y1="121.4" x2="144.36" y2="46.2" xlink:href="#未命名的渐变_104"/><linearGradient id="未命名的渐变_104-74" x1="88.22" y1="121.4" x2="88.22" y2="46.2" xlink:href="#未命名的渐变_104"/><linearGradient id="未命名的渐变_104-75" x1="134.58" y1="121.4" x2="134.58" y2="46.2" xlink:href="#未命名的渐变_104"/></defs><title>二维码的功能</title><g id="图层_2" data-name="图层 2"><g id="图层_1-2" data-name="图层 1"><line class="cls-1" x1="159.01" y1="145.56" x2="159.01" y2="144.06"/><path class="cls-2" d="M159,140V121.63a9.83,9.83,0,0,0-9.35-9.81"/><line class="cls-1" x1="147.64" y1="111.81" x2="146.14" y2="111.81"/><line class="cls-1" x1="75.09" y1="103.18" x2="73.59" y2="103.18"/><path class="cls-3" d="M69.3,103.18H51.74a14.6,14.6,0,0,1-14.6-14.59V86.2"/><line class="cls-1" x1="37.14" y1="84.06" x2="37.14" y2="82.56"/><line class="cls-1" x1="79.73" y1="74.18" x2="78.23" y2="74.18"/><path class="cls-4" d="M74.44,73.81a14.61,14.61,0,0,1-11.3-14.22V41"/><line class="cls-1" x1="63.14" y1="39.06" x2="63.14" y2="37.56"/><path class="cls-5" d="M94.62,50.61A45,45,0,1,1,145.84,104"/><path class="cls-5" d="M145.07,66.88a62,62,0,1,1-67.76,53.19"/><rect class="cls-6" x="50.89" width="39.11" height="39.11" rx="19.56" ry="19.56" transform="translate(140.89 39.11) rotate(180)"/><path class="cls-7" d="M81.83,7.86a2.57,2.57,0,1,1-2.56,2.56,2.56,2.56,0,0,1,2.56-2.56Z"/><path class="cls-8" d="M53.67,33.48a2.05,2.05,0,0,1-1.78-3.07L62.41,12A2,2,0,0,1,66,12l6.81,11.91,3.5-4.46a2.05,2.05,0,0,1,3.22,0l8.43,10.7a2.05,2.05,0,0,1-1.61,3.32Z"/><rect class="cls-9" x="131.11" width="39.11" height="39.11" rx="19.56" ry="19.56"/><path class="cls-10" d="M161.66,3.35h-23A4.62,4.62,0,0,0,134,8V31a4.6,4.6,0,0,0,4.61,4.6h23a4.6,4.6,0,0,0,4.61-4.6V8a4.61,4.61,0,0,0-4.61-4.61Z"/><path class="cls-11" d="M139,19.48A11.18,11.18,0,1,0,150.15,8.31,11.18,11.18,0,0,0,139,19.48Z"/><path class="cls-12" d="M147.6,25.86c-1,.56-1.76.11-1.76-1l0-10.74c0-1.12.79-1.58,1.76-1l9.31,5.35a1.07,1.07,0,0,1,0,2Z"/><rect class="cls-13" y="66.72" width="39.11" height="39.11" rx="19.56" ry="19.56"/><path class="cls-14" d="M35.23,74.35V72.4a2,2,0,0,0-1.95-2h-2a2,2,0,0,0-2,2H9.86a2,2,0,0,0-1.95-2H6A2,2,0,0,0,4,72.4v1.95a2,2,0,0,0,2,2H6V95.81H6a2,2,0,0,0-1.95,2v2a2,2,0,0,0,2,2h2a2,2,0,0,0,1.95-2H29.37a2,2,0,0,0,2,2h2a2,2,0,0,0,1.95-2v-2a2,2,0,0,0-1.95-2h0V76.3h0A2,2,0,0,0,35.23,74.35Zm-3.9-1.95h2v1.95h-2ZM6,72.4h2v1.95H6Zm2,27.32H6v-2h2Zm25.37,0h-2v-2h2Zm-2-3.91h0a2,2,0,0,0-2,2H9.86a2,2,0,0,0-1.95-2h0V76.3h0a2,2,0,0,0,1.95-2H29.37a2,2,0,0,0,2,2h0Z"/><polygon class="cls-15" points="11.81 82.16 13.76 82.16 13.76 80.2 18.64 80.2 18.64 91.91 16.69 91.91 16.69 93.86 22.54 93.86 22.54 91.91 20.59 91.91 20.59 80.2 25.47 80.2 25.47 82.16 27.42 82.16 27.42 78.25 11.81 78.25 11.81 82.16"/><rect class="cls-16" x="184.03" y="67.34" width="39.11" height="39.11" rx="19.56" ry="19.56"/><path class="cls-17" d="M209.11,92.52c-.32-2.16-2.56-3.84-5.27-3.84s-5,1.68-5.28,3.84c-1.07,3.71-3.19,6.23-5.62,6.23-3.52,0-6.38-5.29-6.38-11.82,0-4.93,1.64-9.16,4-10.93a10.09,10.09,0,0,1,6.41-2.19h.33a1.56,1.56,0,0,1,1.19.44h0c.89.9,3,1.53,5.39,1.53s4.49-.63,5.38-1.53h0a1.56,1.56,0,0,1,1.19-.44h.33A10.09,10.09,0,0,1,217.15,76c2.32,1.77,4,6,4,10.93,0,6.53-2.86,11.82-6.38,11.82-2.43,0-4.54-2.52-5.62-6.23Z"/><path class="cls-18" d="M195.3,82.12h-1.75a.86.86,0,0,0-.75.44.88.88,0,0,0,.75,1.31h1.75v1.75a.89.89,0,0,0,.44.76.87.87,0,0,0,.88,0,.88.88,0,0,0,.43-.76V83.87h1.75a.88.88,0,0,0,.76-1.31.87.87,0,0,0-.76-.44h-1.75V80.37a.88.88,0,0,0-.43-.76.92.92,0,0,0-.88,0,.89.89,0,0,0-.44.76Z"/><path class="cls-19" d="M211.93,85.62A2.63,2.63,0,1,0,209.31,83a2.62,2.62,0,0,0,2.62,2.62Z"/><rect class="cls-20" x="52.72" y="133.44" width="39.11" height="39.11" rx="19.56" ry="19.56"/><path class="cls-21" d="M84.85,134.85a1.07,1.07,0,0,0-.72-.18l-18.59,4.24c-.35,0-.53.35-.53.71v18.52a6.38,6.38,0,1,0,1.43,4.06V148.61l17.16-3.88v12A6.38,6.38,0,1,0,85,160.79V135.38C85,135.2,85,134.85,84.85,134.85Z"/><rect class="cls-22" x="129.28" y="133.44" width="39.11" height="39.11" rx="19.56" ry="19.56"/><circle class="cls-23" cx="148.83" cy="153" r="2.29"/><circle class="cls-24" cx="141.96" cy="153" r="2.29"/><circle class="cls-25" cx="155.71" cy="153" r="2.29"/><rect class="cls-26" x="33.02" y="37.99" width="16.63" height="4.76" rx="2.38" ry="2.38" transform="translate(82.66 80.74) rotate(-180)"/><rect class="cls-27" x="12.66" y="46.81" width="36.98" height="4.76" rx="2.38" ry="2.38" transform="translate(62.3 98.38) rotate(180)"/><rect class="cls-28" x="162.66" y="108.99" width="12.17" height="4.76" rx="2.38" ry="2.38"/><rect class="cls-29" x="162.66" y="117.81" width="27.08" height="4.76" rx="2.38" ry="2.38"/><path class="cls-30" d="M126.15,83.4h-.05v0Z"/><path class="cls-31" d="M127.07,80.15h4.71a1,1,0,0,0,1-1V77.65a1,1,0,0,0-1-1H117.16a1,1,0,0,1-1-1V74.5a1,1,0,0,0-1-1h-1.32a1,1,0,0,1-1-1V67.85a1,1,0,0,0-1-1h-1.23a1,1,0,0,0-1,1v4.6a1,1,0,0,1-1,1h-1.28a1,1,0,0,1-1-1V64.59a1,1,0,0,0-1-1h-1.43a1,1,0,0,0-1,1V79.31a1,1,0,0,0,1,1h4.56a1,1,0,0,1,1,1v1.29a1,1,0,0,1-1,1H107.5a1,1,0,0,0-1,1v1.1a1,1,0,0,1-1,1H104a1,1,0,0,1-1-1V84.37a1,1,0,0,0-1-1H97.76a1,1,0,0,1-1-1V81.15a1,1,0,0,1,1-1h1.08a1,1,0,0,0,1-1V77.79a1,1,0,0,0-1-1H94.12a1,1,0,0,0-1,1v1.37a1,1,0,0,1-1,1h-4.5a1,1,0,0,1-1-1v-1.4a1,1,0,0,0-1-1H77.93a1,1,0,0,0-1,1v4.76a1,1,0,0,0,1,1h1.22a1,1,0,0,1,1,1v1.24a1,1,0,0,0,1,1h1.25a1,1,0,0,1,1,1v1.22a1,1,0,0,0,1,1h1.61a1,1,0,0,1,1,1v1.52a1,1,0,0,0,1,1h1.24a1,1,0,0,0,1-1V90.78a1,1,0,0,1,1-1H95.7a1,1,0,0,0,1-1V87.69a1,1,0,0,1,1-1H99a1,1,0,0,1,1,1v1.16a1,1,0,0,0,1,1h1.31a1,1,0,0,1,1,1V95.5a1,1,0,0,0,1,1h1.52a1,1,0,0,0,1-1V94.25a1,1,0,0,1,1-1h1.33a1,1,0,0,0,1-1V87.54a1,1,0,0,1,1-1h1.23a1,1,0,0,0,1-1V81.28a1,1,0,0,1,1-1h8a1,1,0,0,1,1,1v1.16a1,1,0,0,0,1,1h1.23a1,1,0,0,0,1-1V81.11A1,1,0,0,1,127.07,80.15ZM92.15,86.52H87.84a1,1,0,0,1-1-1V84.46a1,1,0,0,1,1-1h4.31a1,1,0,0,1,1,1v1.09A1,1,0,0,1,92.15,86.52Z"/><path class="cls-32" d="M116.21,73.52l0,0v0h0Z"/><path class="cls-33" d="M99.91,89.85v0h0Z"/><path class="cls-34" d="M106.57,63.59v0h0Z"/><path class="cls-35" d="M83.28,89.83l0,0v0h0Z"/><path class="cls-36" d="M96.67,89.81v0l0,0Z"/><path class="cls-37" d="M122.94,83.4h0l0,0Z"/><path class="cls-38" d="M98.82,50.6h-21a1,1,0,0,0-1,1V72.45a1,1,0,0,0,1,1h21a1,1,0,0,0,1-1V51.57A1,1,0,0,0,98.82,50.6ZM95.61,70.2H81.1a1,1,0,0,1-1-1V54.74a1,1,0,0,1,1-1H95.61a1,1,0,0,1,1,1v14.5A1,1,0,0,1,95.61,70.2Z"/><path class="cls-39" d="M144.92,50.59H124a1,1,0,0,0-1,1V72.47a1,1,0,0,0,1,1h20.92a1,1,0,0,0,1-1V51.56A1,1,0,0,0,144.92,50.59Zm-3.22,19.6H127.2a1,1,0,0,1-1-1V54.72a1,1,0,0,1,1-1h14.5a1,1,0,0,1,1,1v14.5A1,1,0,0,1,141.7,70.19Z"/><path class="cls-40" d="M77.94,119.45H98.85a1,1,0,0,0,1-1V97.57a1,1,0,0,0-1-1H77.94a1,1,0,0,0-1,1v20.91A1,1,0,0,0,77.94,119.45ZM81.15,99.8H95.64a1,1,0,0,1,1,1v14.55a1,1,0,0,1-1,1H81.15a1,1,0,0,1-1-1V100.77A1,1,0,0,1,81.15,99.8Z"/><path class="cls-41" d="M144.86,109.6H137.1a1,1,0,0,1-1-1v-4.45a1,1,0,0,1,1-1h1.44a1,1,0,0,0,1-1v-1.52a1,1,0,0,0-1-1h-4.72a1,1,0,0,0-1,1v1.45a1,1,0,0,1-1,1H117.26a1,1,0,0,1-1-1v-1.4a1,1,0,0,1,1-1h4.67a1,1,0,0,0,1-1V97.53a1,1,0,0,0-1-1h-4.82a1,1,0,0,1-1-1V94.38a1,1,0,0,0-1-1h-1.24a1,1,0,0,0-1,1v7.92a1,1,0,0,1-1,1h-4.42a1,1,0,0,0-1,1v1.3a1,1,0,0,0,1,1H122a1,1,0,0,1,1,1v1.2a1,1,0,0,0,1,1h1.22a1,1,0,0,0,1-1v-1.13a1,1,0,0,1,1-1h4.84a1,1,0,0,1,1,1v4.68a1,1,0,0,0,1,1h1.29a1,1,0,0,1,1,1v1.18a1,1,0,0,0,1,1h1.53a1,1,0,0,0,1-1v-1.25a1,1,0,0,1,1-1h4.34a1,1,0,0,0,1-1v-1.58A1,1,0,0,0,144.86,109.6Z"/><path class="cls-42" d="M106.58,103.27h0v0Z"/><path class="cls-43" d="M122.9,96.52v0h0Z"/><path class="cls-44" d="M126.12,109.65l0,0h0v0Z"/><path class="cls-45" d="M139.55,103.22h0v0Z"/><path class="cls-46" d="M132.85,99.77v0l0,0Z"/><path class="cls-47" d="M122.94,109.67v0h0Z"/><path class="cls-48" d="M110.83,60.47h1.24a1,1,0,0,1,1,1v1.25a1,1,0,0,0,1,1h1.29a1,1,0,0,1,1,1v1.14a1,1,0,0,0,1,1h1.43a1,1,0,0,0,1-1V61.28a1,1,0,0,0-1-1h-1.39a1,1,0,0,1-1-1V57.82a1,1,0,0,1,1-1h1.37a1,1,0,0,0,1-1V51.52a1,1,0,0,0-1-1H104.15a1,1,0,0,0-1,1V56a1,1,0,0,0,1,1h1.5a1,1,0,0,1,1,1v4.71a1,1,0,0,0,1,1h1.32a1,1,0,0,0,1-1V61.44A1,1,0,0,1,110.83,60.47Zm0-6.69H112a1,1,0,0,1,1,1v1.12a1,1,0,0,1-1,1h-1.1a1,1,0,0,1-1-1V54.75A1,1,0,0,1,110.87,53.78Z"/><path class="cls-34" d="M106.61,63.59h0l0,0Z"/><path class="cls-49" d="M106.38,115.38V114.1a1,1,0,0,1,1-1h4.59a1,1,0,0,0,1-1v-1.45a1,1,0,0,0-1-1h-7.77a1,1,0,0,0-1,1v7.81a1,1,0,0,0,1,1h4.28a1,1,0,0,0,1-1v-1.22a1,1,0,0,0-1-1h-1.1A1,1,0,0,1,106.38,115.38Z"/><path class="cls-43" d="M122.94,96.52h0l0,0Z"/><path class="cls-50" d="M122.87,94.2v1.57a1,1,0,0,0,1,1h1.49a1,1,0,0,0,1-1V87.83a1,1,0,0,0-1-1h-1.6a1,1,0,0,0-1,1V89.1a1,1,0,0,1-1,1h-1.2a1,1,0,0,0-1,1v1.24a1,1,0,0,0,1,1h1.31A1,1,0,0,1,122.87,94.2Z"/><path class="cls-30" d="M126.15,96.52h-.05v0Z"/><path class="cls-51" d="M129.6,89.85h0l0,0Z"/><path class="cls-52" d="M119.69,89.85h0v0Z"/><path class="cls-30" d="M126.15,83.44v0l-.05,0Z"/><path class="cls-51" d="M129.64,89.85v0h0Z"/><path class="cls-53" d="M129.64,87.54v1.31a1,1,0,0,0,1,1h1.15a1,1,0,0,0,1-1V84.41a1,1,0,0,0-1-1h-4.65a1,1,0,0,0-1,1v1.2a1,1,0,0,0,1,1h1.57A1,1,0,0,1,129.64,87.54Z"/><path class="cls-54" d="M119.74,116.38v0l0,0Z"/><rect class="cls-55" x="119.74" y="116.38" width="9.77" height="3.09" rx="0.97" ry="0.97"/><path class="cls-56" d="M136.11,76.8h0v0Z"/><rect class="cls-57" x="136.15" y="76.8" width="9.77" height="3.09" rx="0.97" ry="0.97"/><path class="cls-58" d="M76.73,87.67V92a1,1,0,0,0,1,1h1.45a1,1,0,0,0,1-1V87.67a1,1,0,0,0-1-1H77.7A1,1,0,0,0,76.73,87.67Z"/><path class="cls-35" d="M83.26,89.81v0h0l0,0Z"/><rect class="cls-59" x="132.85" y="93.43" width="6.58" height="3.08" rx="0.97" ry="0.97"/><path class="cls-60" d="M132.85,96.51h0l0,0Z"/><path class="cls-46" d="M132.85,99.72h0v0Z"/><rect class="cls-61" x="126.15" y="96.56" width="6.67" height="3.17" rx="0.97" ry="0.97"/><path class="cls-30" d="M126.15,96.56v0l-.05,0Z"/><path class="cls-60" d="M132.81,96.51v0h0Z"/><path class="cls-62" d="M126.14,109.67v0l0,0,0,0Z"/><rect class="cls-63" x="126.14" y="109.67" width="3.38" height="3.38" rx="0.97" ry="0.97"/><path class="cls-42" d="M106.58,103.22v0l0,0Z"/><rect class="cls-64" x="103.21" y="99.84" width="3.38" height="3.38" rx="0.97" ry="0.97"/><path class="cls-65" d="M119.74,116.34h0v0Z"/><path class="cls-66" d="M119.63,113.12h.05l-.05,0Z"/><path class="cls-67" d="M117.29,116.34h1.42a1,1,0,0,0,1-1l0-1.29a1,1,0,0,0-1-.95h-1.4a1,1,0,0,0-1,1v1.28A1,1,0,0,0,117.29,116.34Z"/><rect class="cls-68" x="116.23" y="70.41" width="3.38" height="3.09" rx="0.97" ry="0.97"/><path class="cls-32" d="M116.23,73.54v0h0l0,0Z"/><path class="cls-69" d="M122.94,109.67l0,0v0Z"/><path class="cls-70" d="M120.64,113.09h1.3a1,1,0,0,0,1-1v-1.48a1,1,0,0,0-1-1h-1.3a1,1,0,0,0-1,1v1.48A1,1,0,0,0,120.64,113.09Z"/><path class="cls-71" d="M119.68,113.12v0h0Z"/><path class="cls-72" d="M142.82,103.27h0l0,0Z"/><path class="cls-73" d="M144.86,99.82h-1.07a1,1,0,0,0-1,1v1.53a1,1,0,0,0,1,1h1.08a1,1,0,0,0,1-1v-1.53A1,1,0,0,0,144.86,99.82Z"/><path class="cls-52" d="M119.69,89.81v0l0,0Z"/><rect class="cls-74" x="116.32" y="86.65" width="3.38" height="3.16" rx="0.97" ry="0.97"/><path class="cls-75" d="M119.69,86.61v0h0Z"/><rect class="cls-76" x="96.71" y="89.85" width="3.17" height="3.38" rx="0.97" ry="0.97"/><path class="cls-33" d="M99.87,89.85h0l0,0Z"/><path class="cls-36" d="M96.67,89.85h0v0Z"/><rect class="cls-77" x="119.73" y="83.44" width="3.17" height="3.17" rx="0.97" ry="0.97"/><path class="cls-75" d="M119.73,86.61h0l0,0Z"/><path class="cls-37" d="M122.9,83.4v0h0Z"/><path class="cls-78" d="M139.31,83.4v0h0Z"/><path class="cls-79" d="M136.1,86.61l0,0v0Z"/><rect class="cls-80" x="136.14" y="83.44" width="3.17" height="3.17" rx="0.97" ry="0.97"/><path class="cls-81" d="M142.78,105.39v-1.13a1,1,0,0,0-1-1l-1.29,0a1,1,0,0,0-1,1v1.15a1,1,0,0,0,1,1h1.3A1,1,0,0,0,142.78,105.39Z"/><path class="cls-82" d="M142.77,103.27v0h0Z"/><path class="cls-45" d="M139.55,103.26v0l0,0Z"/><rect class="cls-83" x="142.81" y="93.39" width="3.04" height="3.07" rx="0.97" ry="0.97"/><rect class="cls-83" x="142.81" y="86.63" width="3.04" height="3.07" rx="0.97" ry="0.97"/><rect class="cls-84" x="142.84" y="116.43" width="3.04" height="3.03" rx="0.97" ry="0.97"/><rect class="cls-85" x="83.36" y="57.02" width="9.73" height="9.73" rx="0.97" ry="0.97"/><rect class="cls-86" x="129.69" y="57.01" width="9.78" height="9.72" rx="0.97" ry="0.97"/><rect class="cls-85" x="83.36" y="103.31" width="9.72" height="9.78" rx="0.97" ry="0.97"/></g></g></svg>