<?xml version="1.0" standalone="no"?><!DOCTYPE svg PUBLIC "-//W3C//DTD SVG 1.1//EN" "http://www.w3.org/Graphics/SVG/1.1/DTD/svg11.dtd"><svg t="1644567727867" class="icon" viewBox="0 0 1024 1024" version="1.1" xmlns="http://www.w3.org/2000/svg" p-id="985" xmlns:xlink="http://www.w3.org/1999/xlink" width="200" height="200"><defs><style type="text/css"></style></defs><path d="M788.48 565.76c-23.04-17.92-61.44-33.28-94.72-25.6-33.28 7.68-64 20.48-64 20.48h-12.8v222.72c-5.12 2.56-10.24 5.12-12.8 7.68v-232.96c0-12.8-10.24-23.04-20.48-23.04h-2.56V512h15.36s38.4-12.8 79.36-23.04c28.16-7.68 61.44 0 89.6 12.8l51.2-117.76V76.8c0-46.08-7.68-51.2-53.76-51.2H133.12C89.6 25.6 76.8 38.4 76.8 84.48V896c0 46.08 5.12 51.2 51.2 51.2h384V512c0-12.8 12.8-25.6 25.6-25.6 15.36 0 25.6 10.24 25.6 25.6v465.92c0 12.8 10.24 23.04 20.48 23.04 12.8 0 20.48-10.24 20.48-23.04v-102.4l25.6-58.88c23.04-15.36 71.68-46.08 130.56-20.48 30.72 17.92 61.44 20.48 107.52 20.48 46.08 0 79.36-7.68 79.36-7.68v-253.44s-71.68 35.84-158.72 10.24z m-422.4 104.96c0 7.68-2.56 12.8-7.68 17.92-5.12 5.12-20.48 2.56-25.6 2.56H230.4c-5.12 0-17.92 2.56-23.04-2.56-5.12-5.12-7.68-10.24-7.68-17.92v-33.28c0-7.68 2.56-12.8 7.68-17.92 5.12-5.12 17.92-5.12 23.04-5.12h102.4c5.12 0 23.04 0 25.6 5.12 5.12 5.12 7.68 10.24 7.68 17.92v33.28z m0-209.92c0 7.68-2.56 12.8-7.68 17.92-5.12 5.12-10.24 7.68-17.92 7.68H225.28c-5.12 0-12.8-2.56-17.92-7.68-2.56-5.12-5.12-10.24-5.12-17.92v-33.28c0-7.68 2.56-12.8 7.68-17.92 5.12-5.12 15.36 0 23.04 0h102.4c5.12 0 23.04-5.12 25.6 0 5.12 5.12 7.68 10.24 7.68 17.92V460.8z m120.32-204.8c0 12.8-12.8 25.6-25.6 25.6H230.4c-12.8 0-25.6-12.8-25.6-25.6V230.4c0-12.8 12.8-25.6 25.6-25.6h230.4c12.8 0 25.6 12.8 25.6 25.6v25.6z" fill="#ffffff" p-id="986"></path></svg>