<?xml version="1.0" encoding="UTF-8"?>
<svg width="10px" height="10px" viewBox="0 0 10 10" version="1.1" xmlns="http://www.w3.org/2000/svg" xmlns:xlink="http://www.w3.org/1999/xlink">
    <!-- Generator: Sketch 60.1 (88133) - https://sketch.com -->
    <title>移动端/icon/学工/离职</title>
    <desc>Created with Sketch.</desc>
    <g id="移动端/icon/学工/离职" stroke="none" stroke-width="1" fill="none" fill-rule="evenodd">
        <rect id="矩形" fill="#000000" fill-rule="nonzero" opacity="0" x="0" y="0" width="10" height="10"></rect>
        <path d="M6.09541667,5.285 C5.693125,5.67833333 5.42291667,5.97416667 5.285,6.1725 C4.92541667,6.68979167 4.84916667,7.211875 4.84916667,7.64229167 C4.84916667,8.18395834 4.99291667,8.69166667 5.244375,9.12895833 L0.74895833,9.12895833 C0.565625,9.12895833 0.41666667,8.96979166 0.41666667,8.77354167 L0.41666667,8.328125 C0.41666667,8.29479167 0.421875,8.260625 0.43291667,8.22520833 C0.53166667,7.924375 0.73708334,7.65791666 1.04333333,7.4325 C1.28125,7.25708333 1.58270833,7.105 1.93895833,6.97979167 C2.49229166,6.78541667 3.065625,6.7075 3.25854167,6.684375 C3.26895834,6.683125 3.24958334,6.18208333 3.25583333,6.1725 C3.25708333,6.17041667 3.25583333,5.98770833 3.14875,5.86708333 C3.1466597,5.86371362 3.14397772,5.86074934 3.14083333,5.85833333 C2.82375,5.59020833 2.55375,5.20833333 2.356875,4.75 C2.35182559,4.73718786 2.34044947,4.72794476 2.326875,4.725625 C2.05104167,4.68520833 1.79625,4.38625 1.70583333,3.98520833 C1.60666666,3.545625 1.71895833,3.13229166 1.97375,2.966875 C1.98572652,2.95866448 1.99271084,2.94493128 1.99229167,2.93041667 C1.97895834,2.09 2.17979167,1.423125 2.59020833,0.948125 C3.11770833,0.33666667 3.84208333,0.20833333 4.35645833,0.20833333 C4.87104166,0.20833333 5.59520833,0.33666666 6.123125,0.948125 C6.53354167,1.423125 6.734375,2.08979167 6.72104167,2.93041667 C6.72066117,2.94492257 6.72763662,2.95863837 6.73958333,2.966875 C6.99416666,3.13229167 7.10645833,3.54541667 7.0075,3.98520833 C6.916875,4.38625 6.66208333,4.68520833 6.38625,4.725625 C6.37264465,4.72783769 6.36118693,4.73700387 6.35604167,4.74979167 C6.29104167,4.90229167 6.21541667,5.04979167 6.12979167,5.19145833 L6.09520833,5.285 L6.09541667,5.285 Z M7.5,9.58333333 C6.349375,9.58333333 5.41666667,8.650625 5.41666667,7.5 C5.41666667,6.349375 6.349375,5.41666667 7.5,5.41666667 C8.650625,5.41666667 9.58333333,6.349375 9.58333333,7.5 C9.58333333,8.650625 8.650625,9.58333333 7.5,9.58333333 Z M7.49958333,7.76770833 L8.2175,8.48604167 C8.29255782,8.55494835 8.40858327,8.55247078 8.48063119,8.48042286 C8.55267911,8.40837494 8.55515668,8.29234949 8.48625,8.21729167 L7.76833333,7.49895833 L8.48395833,6.78270833 C8.53196589,6.73470077 8.55071498,6.66472822 8.53314299,6.59914867 C8.51557101,6.53356911 8.46434755,6.48234565 8.39876799,6.46477367 C8.33318844,6.44720168 8.26321589,6.46595077 8.21520833,6.51395833 L7.5,7.23020833 L6.785,6.51458333 C6.71078674,6.44037007 6.59046326,6.44037007 6.51625,6.51458333 C6.44203674,6.58879659 6.44203674,6.70912007 6.51625,6.78333333 L7.23125,7.49895833 L6.514375,8.21625 C6.4647396,8.26388429 6.44473023,8.33462833 6.46206234,8.40120382 C6.47939444,8.46777931 6.53136031,8.51978549 6.59792234,8.53716922 C6.66448437,8.55455294 6.73524391,8.53459844 6.78291667,8.485 L7.49958333,7.76770833 L7.49958333,7.76770833 Z" id="形状" fill="#FF6969" fill-rule="nonzero"></path>
    </g>
</svg>