<?xml version="1.0" encoding="UTF-8"?>
<svg width="16px" height="16px" viewBox="0 0 16 16" version="1.1" xmlns="http://www.w3.org/2000/svg" xmlns:xlink="http://www.w3.org/1999/xlink">
    <!-- Generator: Sketch 60.1 (88133) - https://sketch.com -->
    <title>公告</title>
    <desc>Created with Sketch.</desc>
    <g id="页面-1" stroke="none" stroke-width="1" fill="none" fill-rule="evenodd">
        <g id="首页-812备份-7" transform="translate(-24.000000, -252.000000)">
            <g id="mk/移动/消息通知" transform="translate(16.000000, 235.000000)">
                <g id="mk_search">
                    <g id="公告" transform="translate(8.000000, 17.000000)">
                        <rect id="矩形" fill="#FF6969" x="0" y="0" width="16" height="16" rx="2"></rect>
                        <rect id="矩形" fill="#000000" fill-rule="nonzero" opacity="0" x="3" y="3" width="10" height="10"></rect>
                        <path d="M10.7441667,6.74833333 L11.9941667,6.74833333 C12.2719444,6.74833333 12.4108333,6.88722222 12.4108333,7.165 L12.4108333,7.165 C12.4108333,7.44277778 12.2719444,7.58166667 11.9941667,7.58166667 L10.7441667,7.58166667 C10.4663889,7.58166667 10.3275,7.44277778 10.3275,7.165 L10.3275,7.165 C10.3275,6.88722222 10.4663889,6.74833333 10.7441667,6.74833333 Z M10.9669748,8.46372507 L11.8508583,9.34760854 C12.0472768,9.54402709 12.0472768,9.74044564 11.8508583,9.93686419 L11.8508583,9.93686419 C11.6544397,10.1332827 11.4580212,10.1332827 11.2616026,9.93686419 L10.3777191,9.05298071 C10.1813006,8.85656216 10.1813006,8.66014362 10.3777191,8.46372507 L10.3777191,8.46372507 C10.5741377,8.26730652 10.7705562,8.26730652 10.9669748,8.46372507 Z M10.3783084,5.27677521 L11.2621919,4.39289173 C11.4586104,4.19647318 11.655029,4.19647318 11.8514475,4.39289173 L11.8514475,4.39289173 C12.0478661,4.58931028 12.0478661,4.78572883 11.8514475,4.98214738 L10.9675641,5.86603086 C10.7711455,6.06244941 10.574727,6.06244941 10.3783084,5.86603086 L10.3783084,5.86603086 C10.1818899,5.66961231 10.1818899,5.47319376 10.3783084,5.27677521 Z M4.25,5.5 L5.91666667,5.5 C6.47222222,5.5 6.75,5.77777778 6.75,6.33333333 L6.75,8.41666667 C6.75,8.97222222 6.47222222,9.25 5.91666667,9.25 L4.25,9.25 C3.69444445,9.25 3.41666667,8.97222222 3.41666667,8.41666667 L3.41666667,6.33333333 C3.41666667,5.77777778 3.69444445,5.5 4.25,5.5 Z M5.91666667,5.5 L8.94833333,3.98416667 C9.01291387,3.95180538 9.08964896,3.95520661 9.15111307,3.99315476 C9.21257718,4.0311029 9.25,4.09818164 9.25,4.17041667 L9.25,10.5795833 C9.25,10.6518184 9.21257718,10.7188971 9.15111307,10.7568452 C9.08964896,10.7947934 9.01291387,10.7981946 8.94833333,10.7658333 L5.91666667,9.25 L5.91666667,5.5 Z M4.66666667,9.66666667 L5.91666667,9.66666667 L6.75,12.5833333 L5.5,12.5833333 L4.66666667,9.66666667 Z" id="形状" fill="#FFFFFF" fill-rule="nonzero"></path>
                    </g>
                </g>
            </g>
        </g>
    </g>
</svg>