<svg t="1614772887971" class="icon" viewBox="0 0 1024 1024" version="1.1" xmlns="http://www.w3.org/2000/svg" p-id="11584" width="200" height="200"><path d="M74.496 1002.88L128 727.616l90.24-65.152 94.336-40.128h391.808l123.392 23.744 66.368 162.048 17.92 163.712-24.192 42.368-232.768-11.2z" fill="#3272FA" p-id="11585"></path><path d="M956.672 1006.528l-9.152 17.472H65.856l0.512-26.624c1.024-50.24 6.272-118.336 23.872-185.088 18.24-68.736 49.6-136.192 103.104-182.464l7.68-6.464 9.92 0.064 116.928-1.152v54.208l-107.008-0.896c-40.064 38.208-64.704 93.184-79.68 149.824-13.568 51.008-19.2 103.168-21.376 146.368l784.448-0.128c1.344-49.344-13.056-107.648-30.784-162.304-17.856-55.168-43.328-102.144-73.984-134.592h-122.24v-52.48h139.712l10.752 3.52c40.896 38.208 74.176 100.48 95.872 167.552 22.72 70.208 39.68 152.704 33.088 213.184zM722.24 410.24c-17.92 61.824-42.368 108.096-75.136 142.4-35.264 36.992-79.552 59.136-135.04 70.784l-4.48 0.896-4.48-0.704c-50.112-8.384-94.336-29.632-131.136-67.008-33.792-34.24-60.736-81.856-79.552-145.28-15.744-8.512-27.584-22.72-35.584-41.728-8.768-20.928-12.864-48.256-12.352-80.64l0.192-12.48 10.496-7.04c3.52-2.432 7.104-4.544 10.624-6.464-15.936-97.28-11.776-180.096 47.296-235.264C360.064-6.4 442.56 16.896 518.144 5.632c215.616-32.256 214.144 76.672 235.648 261.312l3.776 2.432 10.496 7.04 0.192 12.48c0.512 31.744-3.328 58.56-11.776 79.36-7.68 18.944-19.072 33.216-34.24 41.984z m-25.856-97.152L693.12 302.08l-7.04 0.448-4.032-21.056c-3.136-16.448-7.872-101.568-14.144-115.52-18.624 7.808-39.552-6.592-58.496-17.408l-9.6 29.76-15.36-1.984 2.048-18.112-16.32 25.856-14.464-2.88 14.272-38.4c-76.288 52.672-207.744 49.984-225.088 26.432-2.688 3.328-3.2 8.064-4.672 12.224-3.584 14.208-7.616 102.592-11.136 116.672l-0.96 5.184-0.384-0.064a102.912 102.912 0 0 1-2.24 7.552c-6.528-4.288-19.776-0.896-31.68 0.896 1.152 15.68 3.776 28.928 8.192 39.232 4.352 10.496 10.368 17.28 17.92 19.584l12.928 3.968 3.52 12.928c16.64 60.8 40.576 105.024 70.592 135.488 27.968 28.352 61.568 44.992 99.712 52.096 43.392-9.792 77.824-27.328 105.024-55.744 28.8-30.144 50.24-73.088 66.304-132.416l3.328-12.352 12.224-4.288c7.424-2.56 13.312-9.472 17.6-19.968 4.16-10.24 6.784-23.168 7.872-38.464a206.72 206.72 0 0 0-22.656 1.344z" fill="#3272FA" p-id="11586"></path><path d="M495.36 702.72l-17.088-28.032 1.344-28.672h74.88v28.352l-15.808 28.352 51.2 181.504-69.888 52.416-69.888-52.352z" fill="#FFFFFF" p-id="11587"></path></svg>
